<svg width="73" height="60" viewBox="0 0 73 60" fill="none" xmlns="http://www.w3.org/2000/svg">
<circle cx="36.5" cy="8.5" r="8.5" fill="url(#paint0_linear_717_29)"/>
<path d="M0 8L21 16C21 16 27 17.875 28.5 20.5C30 23.125 29 27 30 29C31 31 35.5 33.5 37 33.5C38.5 33.5 42 31 43 29C44 27 43.5586 21.5 45 19.5C46.4414 17.5 50 16 50 16L72.5 8C72.5 8 73.3513 12.994 72.5 16C71.5409 19.387 69.7291 20.7756 67.5 23.5C63.0196 28.9761 53.5 35 53.5 35C53.5 35 45.785 39.8711 42.5 44.5C38.8891 49.5882 37 59.5 37 59.5C37 59.5 34.0154 49.566 30 44.5C26.3816 39.9348 18.5 35 18.5 35C18.5 35 9.3641 29.0689 5.5 23.5C3.60764 20.7728 2.58922 19.1357 1.5 16C0.456985 12.9974 0 8 0 8Z" fill="url(#paint1_linear_717_29)"/>
<defs>
<linearGradient id="paint0_linear_717_29" x1="36.5" y1="0" x2="36.5" y2="17" gradientUnits="userSpaceOnUse">
<stop stop-color="#128CC0"/>
<stop offset="1" stop-color="#24D8D4"/>
</linearGradient>
<linearGradient id="paint1_linear_717_29" x1="36.4392" y1="8" x2="36.4392" y2="59.5" gradientUnits="userSpaceOnUse">
<stop stop-color="#128CC0"/>
<stop offset="1" stop-color="#24D8D4"/>
</linearGradient>
</defs>
</svg>
